<svg xmlns="http://www.w3.org/2000/svg" viewBox="0 0 800 1000" fill="none"><defs>
  <linearGradient id="sky" x1="400" y1="0" x2="400" y2="800" gradientUnits="userSpaceOnUse"><stop stop-color="#557b80"/><stop offset="1" stop-color="#eed29b"/></linearGradient>
  <linearGradient id="stone" x2="700" y2="800" gradientUnits="userSpaceOnUse"><stop stop-color="#557b80"/><stop offset="1" stop-color="#284a51"/></linearGradient>
  <linearGradient id="ground" y1="600" y2="1000" gradientUnits="userSpaceOnUse"><stop stop-color="#557b80"/><stop offset="1" stop-color="#193d48"/></linearGradient>
  <linearGradient id="water" y1="550" y2="1000" gradientUnits="userSpaceOnUse"><stop stop-color="#557b80"/><stop offset="1" stop-color="#193d48"/></linearGradient>
  <linearGradient id="warm" x2="0" y2="1"><stop stop-color="#eed29b"/><stop offset="1" stop-color="#bd895d"/></linearGradient>
  <linearGradient id="beam"><stop stop-color="#eed29b" stop-opacity=".62"/><stop offset="1" stop-color="#eed29b" stop-opacity="0"/></linearGradient>
  <radialGradient id="glow"><stop stop-color="#eed29b" stop-opacity=".48"/><stop offset="1" stop-color="#eed29b" stop-opacity="0"/></radialGradient>
  <radialGradient id="haze"><stop stop-color="#bfd1c6" stop-opacity=".2"/><stop offset="1" stop-color="#bfd1c6" stop-opacity="0"/></radialGradient>
  <pattern id="snow" width="103" height="139" patternUnits="userSpaceOnUse"><circle cx="17" cy="33" r="2" fill="#bfd1c6" opacity=".7"/><circle cx="67" cy="107" r="1.5" fill="#bfd1c6" opacity=".5"/><path d="m37 69-8 9" stroke="#bfd1c6" stroke-width="2" opacity=".3"/></pattern>
  <pattern id="rain" width="93" height="121" patternUnits="userSpaceOnUse"><path d="m12 8-9 25m68 52-7 20" stroke="#bfd1c6" stroke-opacity=".15"/></pattern>
  </defs><path d="M0 0h800v1000H0z" fill="url(#sky)"/><ellipse cx="500" cy="400" rx="460" ry="360" fill="url(#haze)"/><circle cx="570" cy="490" r="68" fill="#eed29b" opacity=".8"/><path d="M0 570 150 403 310 500 528 356 800 546v454H0z" fill="#557b80" opacity=".5"/><path d="M0 670h800v330H0z" fill="url(#ground)"/><path d="M0 701h800M0 840h800" stroke="#bfd1c6" stroke-opacity=".12"/><path d="M0 690q230-70 421 0t379 0v310H0z" fill="#bfd1c6" opacity=".85"/><g><path d="M-46 550h229v193h-229z" fill="url(#stone)"/><path d="m-58 550 126.5 -68.7 126.5 68.7-9 15-117.5-57.25-117.5 57.25z" fill="#284a51"/><path d="m-55 545 123.5-68.7 123.5 68.7" stroke="#bfd1c6" stroke-width="9"/><rect x="-9.780000000000001" y="597.11" width="64.96000000000001" height="56.32" rx="3" fill="#284a51" stroke="#bfd1c6" stroke-width="3"/><rect x="-4.780000000000001" y="602.11" width="54.96" height="46.32" fill="#193d48"/><path d="M22.7 602.11v46.32m-27.48 -23.16h54.96" stroke="#284a51" stroke-width="5"/><path d="M98.27000000000001 636.85h52.67v106.15h-52.67z" fill="#284a51"/><path d="M123.46000000000001 652.29v77.2" stroke="#bfd1c6" stroke-opacity=".3"/></g><g><path d="M558 510h259v211h-259z" fill="url(#stone)"/><path d="m546 510 141.5 -77.7 141.5 77.7-9 15-132.5-64.75-132.5 64.75z" fill="#284a51"/><path d="m549 505 138.5-77.7 138.5 77.7" stroke="#bfd1c6" stroke-width="9"/><rect x="599.62" y="561.97" width="72.16" height="60.64" rx="3" fill="#284a51" stroke="#bfd1c6" stroke-width="3"/><rect x="604.62" y="566.97" width="62.16" height="50.64" fill="#193d48"/><path d="M635.7 566.97v50.64m-31.08 -25.32h62.16" stroke="#284a51" stroke-width="5"/><path d="M721.17 604.95h59.57v116.05000000000001h-59.57z" fill="#284a51"/><path d="M749.66 621.83v84.4" stroke="#bfd1c6" stroke-opacity=".3"/></g><g><path d="M212 447h330v263h-330z" fill="url(#stone)"/><path d="m200 447 177 -99 177 99-9 15-168-82.5-168 82.5z" fill="#284a51"/><path d="m203 442 174-99 174 99" stroke="#bfd1c6" stroke-width="9"/><ellipse cx="311" cy="549.5699999999999" rx="134.64000000000001" ry="161.568" fill="url(#glow)"/><rect x="266.4" y="513.01" width="89.2" height="73.12" rx="3" fill="#284a51" stroke="#bfd1c6" stroke-width="3"/><rect x="271.4" y="518.01" width="79.2" height="63.12" fill="url(#warm)"/><path d="M311 518.01v63.12m-39.6 -31.56h79.2" stroke="#284a51" stroke-width="5"/><path d="M419.9 565.35h75.9v144.65h-75.9z" fill="#284a51"/><path d="M456.2 586.39v105.2" stroke="#bfd1c6" stroke-opacity=".3"/></g><path d="m314 710-78 290h319l-90-290z" fill="#557b80" opacity=".4"/><path d="M0 802q172-40 269 0m211 21q188-49 320-5" stroke="#bfd1c6" stroke-width="9"/><g transform="translate(444 724) scale(0.85)" fill="#284a51"><ellipse cx="0" cy="72" rx="30" ry="6" opacity=".35"/><circle cy="-2" r="11"/><path d="M-10 10q10-7 20 0l10 59h-40z"/><path d="M-7 67v15m14-15v15" stroke="#284a51" stroke-width="7" stroke-linecap="round"/></g><path d="M275 740v96m0-54 38-24" stroke="#284a51" stroke-width="7"/><ellipse cx="314" cy="756" rx="70" ry="84" fill="url(#glow)"/><path d="M302 742h25v32h-25z" fill="#eed29b" stroke="#284a51" stroke-width="4"/><path d="M0 0h800v1000H0z" fill="url(#snow)"/></svg>