<svg xmlns="http://www.w3.org/2000/svg" viewBox="0 0 800 1000" fill="none"><defs>
  <linearGradient id="sky" x1="400" y1="0" x2="400" y2="800" gradientUnits="userSpaceOnUse"><stop stop-color="#213f47"/><stop offset="1" stop-color="#567f7a"/></linearGradient>
  <linearGradient id="stone" x2="700" y2="800" gradientUnits="userSpaceOnUse"><stop stop-color="#567f7a"/><stop offset="1" stop-color="#244b4b"/></linearGradient>
  <linearGradient id="ground" y1="600" y2="1000" gradientUnits="userSpaceOnUse"><stop stop-color="#567f7a"/><stop offset="1" stop-color="#213f47"/></linearGradient>
  <linearGradient id="water" y1="550" y2="1000" gradientUnits="userSpaceOnUse"><stop stop-color="#567f7a"/><stop offset="1" stop-color="#213f47"/></linearGradient>
  <linearGradient id="warm" x2="0" y2="1"><stop stop-color="#e3c790"/><stop offset="1" stop-color="#bd895d"/></linearGradient>
  <linearGradient id="beam"><stop stop-color="#e3c790" stop-opacity=".62"/><stop offset="1" stop-color="#e3c790" stop-opacity="0"/></linearGradient>
  <radialGradient id="glow"><stop stop-color="#e3c790" stop-opacity=".48"/><stop offset="1" stop-color="#e3c790" stop-opacity="0"/></radialGradient>
  <radialGradient id="haze"><stop stop-color="#a8b8a1" stop-opacity=".2"/><stop offset="1" stop-color="#a8b8a1" stop-opacity="0"/></radialGradient>
  <pattern id="snow" width="103" height="139" patternUnits="userSpaceOnUse"><circle cx="17" cy="33" r="2" fill="#a8b8a1" opacity=".7"/><circle cx="67" cy="107" r="1.5" fill="#a8b8a1" opacity=".5"/><path d="m37 69-8 9" stroke="#a8b8a1" stroke-width="2" opacity=".3"/></pattern>
  <pattern id="rain" width="93" height="121" patternUnits="userSpaceOnUse"><path d="m12 8-9 25m68 52-7 20" stroke="#a8b8a1" stroke-opacity=".15"/></pattern>
  </defs><path d="M0 0h800v1000H0z" fill="url(#sky)"/><ellipse cx="500" cy="400" rx="460" ry="360" fill="url(#haze)"/><circle cx="611" cy="223" r="41" fill="#a8b8a1" opacity=".8"/><circle cx="595" cy="208" r="40" fill="#213f47"/><circle cx="93" cy="180" r="1.8" fill="#a8b8a1" opacity=".6"/><circle cx="176" cy="275" r="1.8" fill="#a8b8a1" opacity=".6"/><circle cx="333" cy="132" r="1.8" fill="#a8b8a1" opacity=".6"/><circle cx="493" cy="206" r="1.8" fill="#a8b8a1" opacity=".6"/><circle cx="694" cy="282" r="1.8" fill="#a8b8a1" opacity=".6"/><circle cx="551" cy="352" r="1.8" fill="#a8b8a1" opacity=".6"/><path d="M0 565 190 409 408 526 611 435 800 527v473H0z" fill="#567f7a" opacity=".45"/><g><path d="M-56 490h253v229h-253z" fill="url(#stone)"/><path d="m-68 490 138.5 -75.89999999999999 138.5 75.89999999999999-9 15-129.5-63.25-129.5 63.25z" fill="#244b4b"/><rect x="-15.46" y="546.83" width="70.72" height="64.96000000000001" rx="3" fill="#244b4b" stroke="#a8b8a1" stroke-width="3"/><rect x="-10.46" y="551.83" width="60.72" height="54.96" fill="#213f47"/><path d="M19.9 551.83v54.96m-30.36 -27.48h60.72" stroke="#244b4b" stroke-width="5"/><path d="M103.39000000000001 593.05h58.190000000000005v125.95000000000002h-58.190000000000005z" fill="#244b4b"/><path d="M131.22 611.37v91.60000000000001" stroke="#a8b8a1" stroke-opacity=".3"/></g><g><path d="M204 465h244v245h-244z" fill="url(#stone)"/><path d="m192 465 134 -73.2 134 73.2-9 15-125-61-125 61z" fill="#244b4b"/><ellipse cx="277.2" cy="560.55" rx="99.55199999999999" ry="119.46239999999999" fill="url(#glow)"/><rect x="242.92000000000002" y="526.15" width="68.56" height="68.8" rx="3" fill="#244b4b" stroke="#a8b8a1" stroke-width="3"/><rect x="247.92000000000002" y="531.15" width="58.559999999999995" height="58.8" fill="url(#warm)"/><path d="M277.2 531.15v58.8m-29.279999999999998 -29.4h58.559999999999995" stroke="#244b4b" stroke-width="5"/><path d="M357.72 575.25h56.120000000000005v134.75h-56.120000000000005z" fill="#244b4b"/><path d="M384.56 594.85v98" stroke="#a8b8a1" stroke-opacity=".3"/></g><g><path d="M469 505h312v218h-312z" fill="url(#stone)"/><path d="m457 505 168 -93.6 168 93.6-9 15-159-78-159 78z" fill="#244b4b"/><rect x="520.16" y="558.86" width="84.88" height="62.32" rx="3" fill="#244b4b" stroke="#a8b8a1" stroke-width="3"/><rect x="525.16" y="563.86" width="74.88" height="52.32" fill="#213f47"/><path d="M562.5999999999999 563.86v52.32m-37.44 -26.16h74.88" stroke="#244b4b" stroke-width="5"/><path d="M665.56 603.1h71.76v119.9h-71.76z" fill="#244b4b"/><path d="M699.88 620.54v87.2" stroke="#a8b8a1" stroke-opacity=".3"/></g><path d="M0 710h800v290H0z" fill="url(#water)"/><path d="m274 710-26 290h221l-92-290z" fill="#e3c790" opacity=".12"/><rect x="-40" y="752" width="128" height="44" rx="21" fill="#567f7a" stroke="#244b4b" stroke-width="3"/><rect x="95" y="752" width="128" height="44" rx="21" fill="#567f7a" stroke="#244b4b" stroke-width="3"/><rect x="230" y="752" width="128" height="44" rx="21" fill="#567f7a" stroke="#244b4b" stroke-width="3"/><rect x="365" y="752" width="128" height="44" rx="21" fill="#567f7a" stroke="#244b4b" stroke-width="3"/><rect x="500" y="752" width="128" height="44" rx="21" fill="#567f7a" stroke="#244b4b" stroke-width="3"/><rect x="635" y="752" width="128" height="44" rx="21" fill="#567f7a" stroke="#244b4b" stroke-width="3"/><rect x="770" y="752" width="128" height="44" rx="21" fill="#567f7a" stroke="#244b4b" stroke-width="3"/><rect x="18" y="785" width="128" height="44" rx="21" fill="#a8b8a1" stroke="#244b4b" stroke-width="3"/><rect x="153" y="785" width="128" height="44" rx="21" fill="#a8b8a1" stroke="#244b4b" stroke-width="3"/><rect x="288" y="785" width="128" height="44" rx="21" fill="#a8b8a1" stroke="#244b4b" stroke-width="3"/><rect x="423" y="785" width="128" height="44" rx="21" fill="#a8b8a1" stroke="#244b4b" stroke-width="3"/><rect x="558" y="785" width="128" height="44" rx="21" fill="#a8b8a1" stroke="#244b4b" stroke-width="3"/><rect x="693" y="785" width="128" height="44" rx="21" fill="#a8b8a1" stroke="#244b4b" stroke-width="3"/><rect x="828" y="785" width="128" height="44" rx="21" fill="#a8b8a1" stroke="#244b4b" stroke-width="3"/><rect x="-40" y="818" width="128" height="44" rx="21" fill="#567f7a" stroke="#244b4b" stroke-width="3"/><rect x="95" y="818" width="128" height="44" rx="21" fill="#567f7a" stroke="#244b4b" stroke-width="3"/><rect x="230" y="818" width="128" height="44" rx="21" fill="#567f7a" stroke="#244b4b" stroke-width="3"/><rect x="365" y="818" width="128" height="44" rx="21" fill="#567f7a" stroke="#244b4b" stroke-width="3"/><rect x="500" y="818" width="128" height="44" rx="21" fill="#567f7a" stroke="#244b4b" stroke-width="3"/><rect x="635" y="818" width="128" height="44" rx="21" fill="#567f7a" stroke="#244b4b" stroke-width="3"/><rect x="770" y="818" width="128" height="44" rx="21" fill="#567f7a" stroke="#244b4b" stroke-width="3"/><g transform="translate(491 696) scale(0.8)" fill="#244b4b"><ellipse cx="0" cy="72" rx="30" ry="6" opacity=".35"/><circle cy="-2" r="11"/><path d="M-10 10q10-7 20 0l10 59h-40z"/><path d="M-7 67v15m14-15v15" stroke="#244b4b" stroke-width="7" stroke-linecap="round"/></g><ellipse cx="547" cy="751" rx="85" ry="102" fill="url(#glow)"/><rect x="533" y="735" width="27" height="37" rx="3" fill="#e3c790" stroke="#244b4b" stroke-width="5"/><path d="M110 854h140m110 0h145" stroke="#a8b8a1" stroke-width="3" opacity=".35"/><path d="M35 875h158m110 0h145" stroke="#a8b8a1" stroke-width="3" opacity=".35"/><path d="M110 896h176m110 0h145" stroke="#a8b8a1" stroke-width="3" opacity=".35"/><path d="M35 917h194m110 0h145" stroke="#a8b8a1" stroke-width="3" opacity=".35"/><path d="M110 938h212m110 0h145" stroke="#a8b8a1" stroke-width="3" opacity=".35"/><path d="M35 959h230m110 0h145" stroke="#a8b8a1" stroke-width="3" opacity=".35"/><path d="M110 980h248m110 0h145" stroke="#a8b8a1" stroke-width="3" opacity=".35"/><path d="M0 0h800v1000H0z" fill="url(#rain)"/></svg>